<svg width="170" height="53" viewBox="0 0 261 53" fill="none" xmlns="http://www.w3.org/2000/svg">
<path d="M4.58594 39.8359C4.00781 40.2578 3.34375 40.4688 2.59375 40.4688C1.85938 40.4688 1.26562 40.2812 0.8125 39.9062C0.375 39.5156 0.15625 39.0703 0.15625 38.5703C0.15625 38.0703 0.234375 37.7031 0.390625 37.4688C0.84375 37.7344 1.5625 37.8672 2.54688 37.8672C2.9375 37.8672 3.36719 37.6719 3.83594 37.2812C4.30469 36.875 4.67969 36.3203 4.96094 35.6172V24.625C4.96094 23.8906 4.80469 23.3438 4.49219 22.9844C4.02344 22.4219 3.22656 21.8672 2.10156 21.3203C3.24219 20.7734 3.96094 20.3203 4.25781 19.9609C4.72656 19.3672 4.96094 18.7031 4.96094 17.9688L4.98438 7.75C4.60938 6.76562 3.78125 6.27344 2.5 6.27344C1.84375 6.27344 1.35938 6.40625 1.04688 6.67188C0.890625 6.46875 0.8125 6.20312 0.8125 5.875C0.8125 5.54688 0.882812 5.25 1.02344 4.98438C1.16406 4.71875 1.35938 4.48438 1.60938 4.28125C2.14062 3.875 2.85156 3.67188 3.74219 3.67188C4.63281 3.67188 5.36719 3.92969 5.94531 4.44531C6.46094 3.92969 7.0625 3.67188 7.75 3.67188C8.4375 3.67188 9.02344 3.96094 9.50781 4.53906C10.1172 3.96094 10.6562 3.67188 11.125 3.67188C11.5938 3.67188 11.9531 3.71094 12.2031 3.78906C12.4531 3.86719 12.7031 4.01563 12.9531 4.23438C13.4531 4.625 13.9766 5.41406 14.5234 6.60156L23.5 25.2344L30.9062 6.97656L31.5625 5.45312C31.9531 4.59375 32.3203 4.08594 32.6641 3.92969C33.0078 3.75781 33.4062 3.67188 33.8594 3.67188C34.3281 3.67188 34.8047 3.84375 35.2891 4.1875C35.8828 3.84375 36.6562 3.67188 37.6094 3.67188C38.5781 3.67188 39.4141 3.92969 40.1172 4.44531C40.7422 3.92969 41.3906 3.67188 42.0625 3.67188C42.75 3.67188 43.2812 3.72656 43.6562 3.83594C44.0469 3.94531 44.3828 4.09375 44.6641 4.28125C45.2578 4.70312 45.5547 5.22656 45.5547 5.85156C45.5547 6.16406 45.4688 6.4375 45.2969 6.67188C44.9531 6.40625 44.5156 6.27344 43.9844 6.27344C42.7969 6.27344 41.9922 6.82813 41.5703 7.9375V17.9688C41.5703 18.7344 41.7344 19.3047 42.0625 19.6797C42.5781 20.2891 43.3672 20.8359 44.4297 21.3203C43.2891 21.8828 42.5625 22.3438 42.25 22.7031C41.7969 23.2656 41.5703 23.9062 41.5703 24.625V36.0859C42.1016 37.2734 43.0625 37.8672 44.4531 37.8672C44.9844 37.8672 45.4219 37.7344 45.7656 37.4688C45.9375 37.7031 46.0234 37.9766 46.0234 38.2891C46.0234 38.5859 45.9297 38.8672 45.7422 39.1328C45.5703 39.3984 45.3281 39.625 45.0156 39.8125C44.2969 40.25 43.4766 40.4688 42.5547 40.4688C41.6328 40.4688 40.7734 40.2188 39.9766 39.7188C39.2422 40.2188 38.4062 40.4688 37.4688 40.4688C36.4688 40.4688 35.5859 40.2188 34.8203 39.7188C34.0234 40.2188 33.2812 40.4688 32.5938 40.4688C31.9219 40.4688 31.3672 40.4062 30.9297 40.2812C30.4922 40.1719 30.1094 40.0156 29.7812 39.8125C29.1094 39.4062 28.7734 38.8984 28.7734 38.2891C28.7734 37.9766 28.8594 37.7031 29.0312 37.4688C29.375 37.7344 29.8125 37.8672 30.3438 37.8672C31.7344 37.8672 32.6953 37.2734 33.2266 36.0859V10.4688L24.0859 33.1094L23.0781 35.4062C22.5938 36.5 22.25 37.1172 22.0469 37.2578C21.8594 37.3984 21.7031 37.4688 21.5781 37.4688C21.1875 37.4688 20.9141 37.4297 20.7578 37.3516L8.24219 12.6719V35.5938C8.53906 36.3125 8.94531 36.875 9.46094 37.2812C9.97656 37.6719 10.5547 37.8672 11.1953 37.8672C11.8359 37.8672 12.3828 37.7344 12.8359 37.4688C13.0078 37.75 13.0938 38.1406 13.0938 38.6406C13.0938 39.125 12.8516 39.5547 12.3672 39.9297C11.8828 40.2891 11.2578 40.4688 10.4922 40.4688C9.72656 40.4688 9.02344 40.2734 8.38281 39.8828C7.82031 40.2734 7.17188 40.4688 6.4375 40.4688C5.71875 40.4688 5.10156 40.2578 4.58594 39.8359ZM11.5469 10.6797C11.3906 10.9141 11.3125 11.25 11.3125 11.6875C11.3125 12.9531 11.8438 14.6328 12.9062 16.7266L21.4375 33.7656C21.5469 33.625 21.6016 33.3281 21.6016 32.875C21.6016 31.5156 20.9531 29.5234 19.6562 26.8984L11.5469 10.6797ZM35.4766 33.7891C36.2578 33.4922 36.6875 32.4688 36.7656 30.7188C36.8594 28.9688 36.9062 26.5469 36.9062 23.4531C36.9062 20.3594 36.8984 18.3047 36.8828 17.2891C36.8828 16.2578 36.875 15.4297 36.8594 14.8047C36.8125 12.9609 36.6328 11.8516 36.3203 11.4766C36.0234 11.0859 35.7422 10.8281 35.4766 10.7031V33.7891ZM7.91406 34.0938C7.91406 34.2188 7.92188 34.3125 7.9375 34.375L7.91406 34.0938ZM5.28906 34.0938C5.27344 34.1562 5.26562 34.25 5.26562 34.375L5.28906 34.0938ZM70.3047 32.9219C70.6484 32.2656 71.2812 31.9375 72.2031 31.9375C72.8281 31.9375 73.3125 32.1953 73.6562 32.7109C73.9375 33.1172 74.0781 33.6172 74.0781 34.2109C74.0781 34.7891 73.9297 35.375 73.6328 35.9688C73.3359 36.5625 72.9297 37.1016 72.4141 37.5859C71.8984 38.0703 71.3047 38.5 70.6328 38.875C69.9766 39.25 69.2734 39.5625 68.5234 39.8125C66.9766 40.3281 65.3672 40.5859 63.6953 40.5859C62.0234 40.5859 60.4531 40.3125 58.9844 39.7656C57.5312 39.2031 56.2812 38.4219 55.2344 37.4219C53.1875 35.4531 51.9375 32.75 51.4844 29.3125C51.375 28.5469 51.1953 28 50.9453 27.6719C50.4766 27.0938 49.7031 26.5391 48.625 26.0078C49.9844 25.3984 50.8516 24.4219 51.2266 23.0781C51.3359 22.7031 51.4219 22.3281 51.4844 21.9531C51.875 19.2031 53.2656 16.8594 55.6562 14.9219C57.9688 13.0469 60.5547 12.1094 63.4141 12.1094C66.3828 12.1094 68.9531 13.1562 71.125 15.25C73.375 17.4062 74.5 20.0547 74.5 23.1953C74.5 23.3047 74.4922 23.4141 74.4766 23.5234C74.4766 23.6328 74.4844 23.7344 74.5 23.8281C74.5312 24.0312 74.6562 24.1484 74.875 24.1797C75.1562 24.5391 75.2969 24.9219 75.2969 25.3281C75.2969 26.2656 74.7969 26.8203 73.7969 26.9922C73.5469 27.0391 73.1562 27.1016 72.625 27.1797L59.4062 29.2891V31.5391C59.4062 33.3516 59.9531 34.7891 61.0469 35.8516C62.0781 36.8672 63.3828 37.375 64.9609 37.375C66.6328 37.375 67.9766 37.0312 68.9922 36.3438C69.9453 35.6875 70.4219 34.8281 70.4219 33.7656C70.4219 33.5156 70.3828 33.2344 70.3047 32.9219ZM66.2031 25.3516V18.7891C66.2031 17.7578 66 17 65.5938 16.5156C64.875 15.6875 64.1641 15.2734 63.4609 15.2734C62.7578 15.2734 62.1719 15.3828 61.7031 15.6016C61.2344 15.8047 60.8281 16.1328 60.4844 16.5859C59.7656 17.5391 59.4062 19.0234 59.4062 21.0391V26.4531L66.2031 25.3516ZM69.6719 24.7656V24.0391C69.6719 21.1328 69.4297 19.375 68.9453 18.7656C68.7266 18.5 68.4844 18.3047 68.2188 18.1797V25L69.6719 24.7656ZM55.5859 33.7891C55.8047 33.6172 55.9141 33.4219 55.9141 33.2031C55.9141 32.8594 55.8438 32.4219 55.7031 31.8906C55.0625 29.4375 54.7422 27.7344 54.7422 26.7812C54.7422 25.8125 54.7734 25.0625 54.8359 24.5312C54.8984 23.9844 54.9844 23.4375 55.0938 22.8906C55.2812 21.8281 55.4844 20.8906 55.7031 20.0781C55.8438 19.5469 55.9141 19.1875 55.9141 19C55.9141 18.625 55.8047 18.3516 55.5859 18.1797C54.9297 18.9609 54.4297 20.0078 54.0859 21.3203C53.7422 22.6328 53.4609 23.7891 53.2422 24.7891C53.1641 25.2109 52.7031 25.6172 51.8594 26.0078C52.7031 26.3984 53.1641 26.7891 53.2422 27.1797C53.8203 29.8203 54.2969 31.5 54.6719 32.2188C55.0469 32.9375 55.3516 33.4609 55.5859 33.7891ZM81.3438 40.9141C80.2188 39.8828 79.6562 38.6016 79.6562 37.0703C79.6562 34.7891 81.0078 32.9141 83.7109 31.4453C81.9453 30.2109 80.6562 28.2578 79.8438 25.5859C79.5781 24.7578 79.3125 24.1953 79.0469 23.8984C78.6562 23.4297 77.9844 22.9609 77.0312 22.4922C77.8125 22.1328 78.4062 21.6719 78.8125 21.1094C79.2344 20.5469 79.5938 19.8125 79.8906 18.9062C80.2031 18 80.6328 17.1328 81.1797 16.3047C81.7422 15.4766 82.4609 14.75 83.3359 14.125C85.2578 12.7812 87.7344 12.1094 90.7656 12.1094C91.7344 12.1094 92.7422 12.2109 93.7891 12.4141C94.0078 10.7109 94.7656 9.26562 96.0625 8.07812C97.3438 6.875 98.8438 6.27344 100.562 6.27344C102.578 6.27344 104.273 6.79687 105.648 7.84375C106.398 8.40625 107.148 8.61719 107.898 8.47656C107.961 9.72656 107.477 10.5312 106.445 10.8906C106.273 13 105.359 14.0547 103.703 14.0547C103.047 14.0547 102.648 14.0078 102.508 13.9141C102.742 13.7109 102.859 13.4531 102.859 13.1406C102.859 12.8125 102.727 12.5312 102.461 12.2969C102.133 12.9062 101.398 13.2109 100.258 13.2109C99.6328 13.2109 99.1406 12.9141 98.7812 12.3203C99.375 12.1328 99.8438 11.8516 100.188 11.4766C100.531 11.0859 100.703 10.7266 100.703 10.3984C100.703 9.53906 100.25 9.10938 99.3438 9.10938C97.5938 9.10938 96.5703 10.4688 96.2734 13.1875C99.1172 14.4062 100.93 16.3203 101.711 18.9297C102.227 20.6953 103.18 21.8828 104.57 22.4922C103.352 23.1016 102.547 23.7812 102.156 24.5312C102 24.8281 101.859 25.1797 101.734 25.5859C100.891 28.2422 99.5703 30.2031 97.7734 31.4688C95.9766 32.7188 93.6641 33.3438 90.8359 33.3438C89.0391 33.3438 87.4766 33.125 86.1484 32.6875C85.6328 33.0156 85.375 33.3828 85.375 33.7891C85.375 34.1797 85.4531 34.5156 85.6094 34.7969C85.7656 35.0625 86.0469 35.3047 86.4531 35.5234C87.25 35.9453 88.7656 36.3203 91 36.6484C92.0156 36.8516 93.0625 36.1953 94.1406 34.6797C94.2031 35.4766 94.3828 36.0781 94.6797 36.4844C94.9766 36.875 95.3047 37.0938 95.6641 37.1406C99.9766 37.7812 102.766 39.1875 104.031 41.3594C104.469 42.0938 104.688 43.0312 104.688 44.1719C104.688 45.3281 104.32 46.4453 103.586 47.5234C102.852 48.6172 101.859 49.5469 100.609 50.3125C98.0156 51.875 94.8281 52.6562 91.0469 52.6562C86.6094 52.6562 83.2188 51.9297 80.875 50.4766C78.8594 49.2109 77.8516 47.5938 77.8516 45.625C77.8516 44.3125 78.5156 43.0703 79.8438 41.8984C80.2812 41.5234 80.7812 41.1953 81.3438 40.9141ZM88.5625 29.0781C88.9062 29.5625 89.25 29.875 89.5938 30.0156C89.9375 30.1406 90.3359 30.2031 90.7891 30.2031C91.2578 30.2031 91.6641 30.1406 92.0078 30.0156C92.3516 29.875 92.6406 29.6406 92.875 29.3125C93.3281 28.6719 93.5547 27.5938 93.5547 26.0781V19.5859C93.5547 18.0703 93.3828 17.0703 93.0391 16.5859C92.6953 16.1016 92.3516 15.7969 92.0078 15.6719C91.6641 15.5312 91.2578 15.4609 90.7891 15.4609C90.3359 15.4609 89.9375 15.5312 89.5938 15.6719C89.25 15.7969 88.9688 16.0156 88.75 16.3281C88.2812 16.9844 88.0469 18.0703 88.0469 19.5859V26.0781C88.0469 27.5938 88.2188 28.5938 88.5625 29.0781ZM95.8281 28.9141C96.5469 28.6641 96.9609 27.8906 97.0703 26.5938C97.1797 25.375 97.2344 24.0078 97.2344 22.4922C97.2344 20.1484 97.1719 18.6484 97.0469 17.9922C96.8594 17.1172 96.4531 16.5469 95.8281 16.2812V28.9141ZM83.6172 28.9141C83.9297 28.6797 84.0859 28.4062 84.0859 28.0938C84.0859 27.6875 84.0312 27.2969 83.9219 26.9219C83.5 25.4844 83.2891 24.0078 83.2891 22.4922C83.2891 20.9922 83.5 19.5234 83.9219 18.0859C84.0312 17.7109 84.0859 17.4141 84.0859 17.1953V16.6328C84.0859 16.4922 84.0234 16.375 83.8984 16.2812C83.2578 17.0625 82.7891 17.9531 82.4922 18.9531C82.2109 19.9531 81.9844 20.8359 81.8125 21.6016C81.75 21.8359 81.3125 22.1328 80.5 22.4922C81.3281 22.8984 81.7656 23.2031 81.8125 23.4062L82.2812 25.375C82.6875 27.0312 83.1328 28.2109 83.6172 28.9141ZM82.4219 37.2578C82.2812 37.3984 82.2109 37.6016 82.2109 37.8672C82.2734 39.5547 84.6797 40.8281 89.4297 41.6875C89.9766 41.8125 90.3672 42.4062 90.6016 43.4688C90.6797 43.125 90.9844 42.8359 91.5156 42.6016C92.0625 42.3828 92.4297 42.2812 92.6172 42.2969C94.9766 42.5781 96.5703 42.8438 97.3984 43.0938C98.8672 43.5469 99.9375 44.2188 100.609 45.1094C100.797 44.8906 100.891 44.6094 100.891 44.2656C100.891 43.9219 100.719 43.5703 100.375 43.2109C100.031 42.8672 99.4688 42.5625 98.6875 42.2969C97.3438 41.8125 95.5234 41.4375 93.2266 41.1719C90.9297 40.9062 89.3125 40.6719 88.375 40.4688C87.4531 40.2656 86.6016 40.0156 85.8203 39.7188C84.1172 39.0469 82.9844 38.2266 82.4219 37.2578ZM83.6875 42.4141C82.5781 42.8984 82.0234 43.8047 82.0234 45.1328C82.0234 46.1953 82.8281 47.1562 84.4375 48.0156C86.2344 48.9844 88.5547 49.4688 91.3984 49.4688C94.8984 49.4688 97.1719 48.8672 98.2188 47.6641C98.5156 47.3359 98.6641 46.9844 98.6641 46.6094C98.6641 46.25 98.4844 45.9297 98.125 45.6484C97.7812 45.3672 97.3281 45.1406 96.7656 44.9688C95.9375 44.6875 94.6328 44.4453 92.8516 44.2422C91.9922 44.1484 90.9297 44.7812 89.6641 46.1406C89.6641 45.2656 89.5156 44.6328 89.2188 44.2422C88.9375 43.8516 88.6562 43.6406 88.375 43.6094C86.5625 43.375 85 42.9766 83.6875 42.4141ZM123.484 37.7734C122.062 39.6484 119.93 40.5859 117.086 40.5859C113.617 40.5859 111.016 39.5469 109.281 37.4688C108.531 36.5781 108.016 35.5859 107.734 34.4922C107.578 33.8359 107.305 33.3359 106.914 32.9922C106.523 32.6328 106.039 32.3125 105.461 32.0312C106.586 31.5156 107.391 30.5469 107.875 29.125C108.391 27.625 109.25 26.5391 110.453 25.8672C111.75 25.1641 113.18 24.7969 114.742 24.7656C116.305 24.7188 117.461 24.6641 118.211 24.6016C118.961 24.5391 119.625 24.4375 120.203 24.2969C121.281 24.0469 122.125 23.5859 122.734 22.9141V19.3984C122.734 17.8516 122.414 16.7188 121.773 16C121.148 15.2812 120.188 14.9219 118.891 14.9219C117.609 14.9219 116.656 15.1641 116.031 15.6484C115.422 16.1172 115.117 16.75 115.117 17.5469C115.117 18.7656 115.742 19.3594 116.992 19.3281C116.742 20.5469 116.086 21.1562 115.023 21.1562C114.711 21.1562 114.406 21.1016 114.109 20.9922V21.0625C114.109 21.4688 114.297 21.7266 114.672 21.8359C114.281 22.4297 113.625 22.7188 112.703 22.7031C111.781 22.6875 111.062 22.1953 110.547 21.2266C110.312 21.2891 110.039 21.3203 109.727 21.3203C109.43 21.3203 109.094 21.2188 108.719 21.0156C108.359 20.8125 108.07 20.5312 107.852 20.1719C108.633 19.7031 109.109 18.9766 109.281 17.9922C109.469 16.7891 110.43 15.5703 112.164 14.3359C114.258 12.8516 116.93 12.1094 120.18 12.1094C125.57 12.1094 128.859 13.7656 130.047 17.0781C130.438 18.1875 130.633 19.5 130.633 21.0156V22.9141C130.633 23.6797 130.82 24.3047 131.195 24.7891C131.586 25.2734 132.242 25.6719 133.164 25.9844C132.18 26.4375 131.547 26.8438 131.266 27.2031C130.844 27.75 130.633 28.375 130.633 29.0781V36.1094C131.086 37.2812 131.734 37.8672 132.578 37.8672C133.109 37.8672 133.547 37.7344 133.891 37.4688C134.109 37.7656 134.219 38.1406 134.219 38.5938C134.219 39.0312 133.992 39.4531 133.539 39.8594C133.102 40.2656 132.438 40.4688 131.547 40.4688C130.656 40.4688 129.828 40.2188 129.062 39.7188C128.391 40.2188 127.789 40.4688 127.258 40.4688C126.742 40.4688 126.289 40.4141 125.898 40.3047C125.523 40.2109 125.172 40.0547 124.844 39.8359C124.109 39.3516 123.656 38.6641 123.484 37.7734ZM124.961 33.7891C125.867 33.4297 126.344 31.7031 126.391 28.6094C126.391 27.9531 126.391 27.2031 126.391 26.3594C126.391 25.5156 126.383 24.7969 126.367 24.2031C126.367 23.5938 126.359 23.0156 126.344 22.4688C126.281 20.5 126.102 19.3281 125.805 18.9531C125.508 18.5625 125.227 18.3047 124.961 18.1797V33.7891ZM116.312 32.125C116.312 32.7812 116.383 33.4219 116.523 34.0469C116.664 34.6719 116.875 35.2188 117.156 35.6875C117.781 36.6719 118.664 37.1641 119.805 37.1641C120.664 37.1641 121.375 36.8125 121.938 36.1094C122.469 35.4219 122.734 34.5391 122.734 33.4609V25.8203C121.734 26.3984 120.453 26.7969 118.891 27.0156C117.172 27.2812 116.312 28.9844 116.312 32.125ZM112.797 37.3984C112.953 37.2891 113.031 37.1484 113.031 36.9766C113.031 36.7422 112.922 36.4141 112.703 35.9922C111.922 34.5547 111.531 33.375 111.531 32.4531C111.531 31.5312 111.562 30.8672 111.625 30.4609C111.703 30.0547 111.797 29.7109 111.906 29.4297C112.031 29.1328 112.164 28.875 112.305 28.6562C112.461 28.4375 112.594 28.2422 112.703 28.0703C112.906 27.7109 113.008 27.4688 113.008 27.3438C113.008 27.2031 112.938 27.0859 112.797 26.9922C112.156 27.2891 111.688 27.6406 111.391 28.0469C110.859 28.7656 110.469 29.6953 110.219 30.8359C110.156 31.1641 109.609 31.5625 108.578 32.0312C109.578 32.4844 110.125 32.8828 110.219 33.2266C110.75 35.0859 111.609 36.4766 112.797 37.3984ZM183.672 43.5625C184.234 43.1719 184.641 42.6641 184.891 42.0391C185.469 42.0391 185.906 42.3906 186.203 43.0938C186.297 43.2969 186.344 43.5938 186.344 43.9844C186.344 44.3906 186.211 44.8438 185.945 45.3438C185.68 45.8438 185.328 46.2812 184.891 46.6562C183.938 47.4219 182.852 47.8047 181.633 47.8047C180.477 47.8047 179.484 47.6406 178.656 47.3125C177.328 46.7969 175.844 46.0391 174.203 45.0391C172.562 44.0547 171.312 43.3594 170.453 42.9531C169.609 42.5625 168.812 42.25 168.062 42.0156C166.766 41.6094 165.406 41.4062 163.984 41.4062C161.188 41.4062 159.562 43.1641 159.109 46.6797C158.25 46.6797 157.484 46.3594 156.812 45.7188C156.203 45.125 155.898 44.4375 155.898 43.6562C155.898 41.6094 157.039 40.2344 159.32 39.5312C155.461 37.8594 152.781 34.7422 151.281 30.1797C150.781 28.6953 150.453 27.2578 150.297 25.8672C150.141 24.4766 149.867 23.4609 149.477 22.8203C149.102 22.1641 148.562 21.6641 147.859 21.3203C149.219 20.6797 150.016 19.3672 150.25 17.3828C150.5 15.3828 151.055 13.5156 151.914 11.7812C152.773 10.0469 153.867 8.5625 155.195 7.32812C157.992 4.73437 161.359 3.4375 165.297 3.4375C169.344 3.4375 172.695 4.64062 175.352 7.04688C178.117 9.54688 179.742 13.0469 180.227 17.5469C180.43 19.4219 181.227 20.6797 182.617 21.3203C181.258 21.9922 180.469 23.2969 180.25 25.2344C180.031 27.1562 179.672 28.8984 179.172 30.4609C178.672 32.0078 178.016 33.4062 177.203 34.6562C175.562 37.2031 173.336 38.9531 170.523 39.9062C170.977 40.0312 171.453 40.1797 171.953 40.3516L173.453 40.8906C174.188 41.1719 174.875 41.4141 175.516 41.6172C176.844 41.6172 177.812 41.1719 178.422 40.2812C178.781 40.3906 179.102 40.5781 179.383 40.8438C179.664 41.1094 179.805 41.375 179.805 41.6406C179.805 41.9062 179.781 42.1328 179.734 42.3203C180.312 42.2109 180.781 41.9688 181.141 41.5938C181.516 41.2188 181.758 40.7969 181.867 40.3281C182.336 40.4219 182.719 40.6172 183.016 40.9141C183.516 41.4453 183.766 41.9219 183.766 42.3438C183.766 42.8906 183.734 43.2969 183.672 43.5625ZM162.648 21.3203C160.93 22.1484 160.07 23.5 160.07 25.375V32.3359C160.07 34.8828 161.125 36.5156 163.234 37.2344C163.859 37.4531 164.539 37.5625 165.273 37.5625C166.008 37.5625 166.68 37.4531 167.289 37.2344C167.914 37.0156 168.453 36.6875 168.906 36.25C169.844 35.3438 170.312 34.0391 170.312 32.3359V25.375C170.312 23.5 169.469 22.1484 167.781 21.3203C169.469 20.5391 170.312 19.2812 170.312 17.5469V11.9453C170.312 10.2109 169.805 8.85937 168.789 7.89062C167.836 7 166.656 6.55469 165.25 6.55469C162.859 6.55469 161.266 7.55469 160.469 9.55469C160.203 10.2266 160.07 11.0234 160.07 11.9453V17.5469C160.07 19.3125 160.93 20.5703 162.648 21.3203ZM172.469 10.7031C172.906 12.0156 173.125 14.2734 173.125 17.4766C173.125 19.2891 173.047 20.2812 172.891 20.4531C172.734 20.625 172.578 20.7656 172.422 20.875C172.141 21.0625 171.836 21.2109 171.508 21.3203C172.445 21.7422 172.938 22.1484 172.984 22.5391C173.141 24.0703 173.219 25.3984 173.219 26.5234C173.219 27.6328 173.203 28.5312 173.172 29.2188C173.141 29.8906 173.094 30.5156 173.031 31.0938C172.906 32.3281 172.75 33.2266 172.562 33.7891C173.781 33.4141 174.461 31.6094 174.602 28.375C174.68 26.5625 174.719 24.5469 174.719 22.3281C174.719 20.0938 174.695 18.4219 174.648 17.3125C174.602 16.1875 174.531 15.2656 174.438 14.5469C174.25 12.8906 173.859 11.7422 173.266 11.1016C173.094 10.9141 172.828 10.7812 172.469 10.7031ZM155.57 33.7891C155.805 33.6953 155.922 33.5312 155.922 33.2969C155.922 32.9531 155.758 32.4141 155.43 31.6797C154.602 29.7891 154.188 26.3359 154.188 21.3203C154.188 17.6641 154.625 14.5547 155.5 11.9922C155.609 11.6016 155.664 11.3047 155.664 11.1016C155.664 10.8984 155.562 10.7656 155.359 10.7031C154.625 11.625 154.102 12.5391 153.789 13.4453C153.211 15.1016 152.75 17.3438 152.406 20.1719C152.359 20.5781 151.898 20.9609 151.023 21.3203C151.898 21.7109 152.359 22.1094 152.406 22.5156C152.969 27.3594 153.688 30.5938 154.562 32.2188C154.859 32.7969 155.195 33.3203 155.57 33.7891ZM207.812 40.4688C205.609 40.4688 204.422 38.9453 204.25 35.8984C203.453 37.3359 202.375 38.4766 201.016 39.3203C199.672 40.1641 198.219 40.5859 196.656 40.5859C195.109 40.5859 193.852 40.375 192.883 39.9531C191.914 39.5312 191.109 38.9219 190.469 38.125C189.219 36.5625 188.594 34.3438 188.594 31.4688V30.0156C188.594 28.2031 187.641 26.8594 185.734 25.9844C186.859 25.4375 187.578 24.9766 187.891 24.6016C188.359 24.0234 188.594 23.375 188.594 22.6562V19.4922C188.594 18.1641 188.141 17.4453 187.234 17.3359C186.969 17.3047 186.633 17.2891 186.227 17.2891C185.82 17.2891 185.445 17.4219 185.102 17.6875C184.883 17.3906 184.773 17.0859 184.773 16.7734C184.773 16.4453 184.852 16.0859 185.008 15.6953C185.18 15.2891 185.438 14.9062 185.781 14.5469C186.594 13.7031 187.539 13.2812 188.617 13.2812C189.695 13.2812 190.711 13.4609 191.664 13.8203C192.352 12.8359 193.164 12.3438 194.102 12.3438C195.711 12.3438 196.516 13.1875 196.516 14.875V30.1328C196.516 33.1016 197.203 34.8828 198.578 35.4766C199.016 35.6641 199.5 35.7578 200.031 35.7578C200.578 35.7578 201.07 35.6484 201.508 35.4297C201.945 35.1953 202.328 34.8828 202.656 34.4922C203.266 33.7266 203.656 32.6797 203.828 31.3516V19.4922C203.828 17.7109 203.102 16.8203 201.648 16.8203C201.117 16.8203 200.68 16.9531 200.336 17.2188C200.117 16.9219 200.008 16.6172 200.008 16.3047C200.008 15.9766 200.086 15.6406 200.242 15.2969C200.414 14.9375 200.672 14.6094 201.016 14.3125C201.781 13.625 202.711 13.2812 203.805 13.2812C204.914 13.2812 205.945 13.4609 206.898 13.8203C207.586 12.8359 208.398 12.3438 209.336 12.3438C210.945 12.3438 211.75 13.1875 211.75 14.875V22.6562C211.75 23.375 211.891 23.9062 212.172 24.25C212.672 24.8594 213.484 25.4375 214.609 25.9844C212.703 26.8594 211.75 28.2031 211.75 30.0156V36.0625C212.047 37.2656 212.695 37.8672 213.695 37.8672C214.227 37.8672 214.664 37.7344 215.008 37.4688C215.227 37.7656 215.336 38.1406 215.336 38.5938C215.336 39.0312 215.109 39.4531 214.656 39.8594C214.219 40.2656 213.523 40.4688 212.57 40.4688C211.633 40.4688 210.742 40.2188 209.898 39.7188C209.273 40.2188 208.578 40.4688 207.812 40.4688ZM206.055 33.7891C206.961 33.4297 207.438 31.7031 207.484 28.6094C207.484 27.9531 207.484 27.2031 207.484 26.3594C207.484 25.5156 207.477 24.7969 207.461 24.2031C207.461 23.5938 207.453 23.0156 207.438 22.4688C207.375 20.5 207.195 19.3281 206.898 18.9531C206.602 18.5625 206.32 18.3047 206.055 18.1797V33.7891ZM192.039 25.9844L192.109 22.8906C192.109 21.5 192.062 20.5781 191.969 20.125C191.703 18.9375 191.328 18.2891 190.844 18.1797V19.7031C190.844 22.3438 190.781 23.8984 190.656 24.3672C190.547 24.8203 190.359 25.1641 190.094 25.3984C189.844 25.6172 189.469 25.8125 188.969 25.9844C189.906 26.3125 190.438 26.7109 190.562 27.1797C190.75 27.9297 190.844 29.625 190.844 32.2656V33.7891C191.312 33.6797 191.695 32.9844 191.992 31.7031C192.07 31.3438 192.109 30.4688 192.109 29.0781L192.039 25.9844ZM225.086 8.99219C224.289 8.99219 223.516 8.78125 222.766 8.35938C222.031 7.9375 221.469 7.375 221.078 6.67188C220.656 5.95312 220.094 5.40625 219.391 5.03125C219.172 4.92187 218.922 4.80469 218.641 4.67969L219.438 4.1875C220.188 3.71875 220.742 3.14844 221.102 2.47656C221.461 1.80469 222 1.28125 222.719 0.90625C223.453 0.515625 224.242 0.320312 225.086 0.320312C226.836 0.320312 228.102 1.05469 228.883 2.52344C229.414 3.49219 230.234 4.21094 231.344 4.67969C231.109 4.82031 230.875 4.94531 230.641 5.05469C230.422 5.16406 230.211 5.28906 230.008 5.42969C229.555 5.74219 229.148 6.20312 228.789 6.8125C228.445 7.42188 227.938 7.9375 227.266 8.35938C226.609 8.78125 225.883 8.99219 225.086 8.99219ZM223.844 6.13281C223.75 5.96094 223.672 5.76562 223.609 5.54688C223.562 5.3125 223.539 4.90625 223.539 4.32812C223.539 3.75 223.836 3.01562 224.43 2.125C223.852 2.125 223.445 2.23438 223.211 2.45312C222.977 2.65625 222.797 2.83594 222.672 2.99219C222.562 3.13281 222.461 3.28125 222.367 3.4375C222.289 3.57812 222.188 3.73438 222.062 3.90625C221.766 4.32812 221.523 4.58594 221.336 4.67969C221.586 4.82031 221.812 5.04688 222.016 5.35938C222.234 5.65625 222.484 5.96875 222.766 6.29688C223.188 6.8125 223.742 7.07031 224.43 7.07031C224.336 6.89844 224.234 6.74219 224.125 6.60156C224.031 6.44531 223.938 6.28906 223.844 6.13281ZM222.742 39.7188C222.023 40.2188 221.203 40.4688 220.281 40.4688C219.375 40.4688 218.695 40.2656 218.242 39.8594C217.805 39.4531 217.586 39.0625 217.586 38.6875C217.586 38.1719 217.695 37.7656 217.914 37.4688C218.258 37.7344 218.766 37.8672 219.438 37.8672C220.109 37.8672 220.688 37.4297 221.172 36.5547V29.0781C221.172 28.3906 221.031 27.8906 220.75 27.5781C220.297 27.1094 219.484 26.5859 218.312 26.0078C219.406 25.5078 220.102 25.1094 220.398 24.8125C220.914 24.2969 221.172 23.6641 221.172 22.9141V19.4922C221.172 18.1641 220.719 17.4453 219.812 17.3359C219.547 17.3047 219.211 17.2891 218.805 17.2891C218.398 17.2891 218.023 17.4219 217.68 17.6875C217.461 17.3906 217.352 17.0859 217.352 16.7734C217.352 16.4453 217.43 16.0859 217.586 15.6953C217.758 15.2891 218.016 14.9062 218.359 14.5469C219.172 13.7031 220.109 13.2812 221.172 13.2812C222.234 13.2812 223.195 13.4688 224.055 13.8438C224.82 12.8438 225.695 12.3438 226.68 12.3438C228.289 12.3438 229.094 13.1875 229.094 14.875V22.9141C229.094 23.6641 229.258 24.2031 229.586 24.5312C230.07 25.0156 230.859 25.5078 231.953 26.0078C230.781 26.5859 230.047 27.0234 229.75 27.3203C229.312 27.8047 229.094 28.3906 229.094 29.0781V36.625C229.609 37.4531 230.195 37.8672 230.852 37.8672C231.508 37.8672 232.008 37.7344 232.352 37.4688C232.57 37.7656 232.68 38.1406 232.68 38.5938C232.68 39.0312 232.453 39.4531 232 39.8594C231.562 40.2656 230.898 40.4688 230.008 40.4688C229.117 40.4688 228.289 40.2188 227.523 39.7188C226.883 40.2188 226.109 40.4688 225.203 40.4688C224.297 40.4688 223.477 40.2188 222.742 39.7188ZM224.758 28.6094C224.773 28.0781 224.781 27.6328 224.781 27.2734C224.797 26.9141 224.805 26.625 224.805 26.4062V25.7734C224.805 25.5391 224.797 25.2344 224.781 24.8594C224.781 24.4844 224.773 24.0703 224.758 23.6172C224.758 23.1641 224.75 22.7188 224.734 22.2812C224.672 21.2031 224.594 20.4609 224.5 20.0547C224.312 19.1484 223.953 18.5234 223.422 18.1797V19.7031C223.422 22.3438 223.359 23.8984 223.234 24.3672C223.125 24.8203 222.938 25.1641 222.672 25.3984C222.422 25.6172 222.047 25.8125 221.547 25.9844C222.484 26.3125 223.016 26.7109 223.141 27.1797C223.328 27.9297 223.422 29.625 223.422 32.2656V33.7891C224.141 33.3203 224.547 32.3594 224.641 30.9062C224.719 29.9062 224.758 29.1406 224.758 28.6094ZM236.922 40.4688C235.234 40.4688 234.438 39.7344 234.531 38.2656C234.531 38 234.625 37.7344 234.812 37.4688C235.047 37.625 235.367 37.7031 235.773 37.7031C236.242 37.7031 236.625 37.5547 236.922 37.2578C237.516 36.6953 238.117 35.8828 238.727 34.8203C241.102 30.7578 242.289 28.4688 242.289 27.9531C242.336 27.6094 242.133 27.2344 241.68 26.8281C241.227 26.4062 240.891 26.125 240.672 25.9844C242.203 25.4531 243.547 24.6562 244.703 23.5938C245.094 23.2344 245.391 22.8828 245.594 22.5391L249.203 16.4219C248.438 16.1562 247.531 16.0234 246.484 16.0234C245.438 16.0234 244.523 16.1641 243.742 16.4453C242.961 16.7109 242.266 17.0938 241.656 17.5938C240.312 18.7031 239.641 20.1016 239.641 21.7891C239.641 22.6016 239.766 23.1719 240.016 23.5C239.828 23.875 239.531 24.0625 239.125 24.0625C238.719 24.0625 238.375 23.9922 238.094 23.8516C237.812 23.7109 237.562 23.5156 237.344 23.2656C236.844 22.6719 236.594 22 236.594 21.25C236.594 20.5 236.695 19.9141 236.898 19.4922C236.258 19.0703 235.938 18.5312 235.938 17.875C235.938 17.2031 236.164 16.6406 236.617 16.1875C236.242 15.7031 236.055 15.2578 236.055 14.8516C236.055 14.4297 236.125 14.0781 236.266 13.7969C236.406 13.5156 236.594 13.2656 236.828 13.0469C237.328 12.5781 237.898 12.3438 238.539 12.3438C238.93 12.3438 239.289 12.4062 239.617 12.5312C239.57 12.7188 239.547 12.9844 239.547 13.3281C239.547 13.8594 239.797 14.125 240.297 14.125C241.078 14.125 241.805 13.9766 242.477 13.6797C243.758 13.1016 245.219 12.8125 246.859 12.8125C248.5 12.8125 250.062 13.0781 251.547 13.6094C252.25 13.0781 253 12.8125 253.797 12.8125C254.812 12.8125 255.625 13.0781 256.234 13.6094C256.875 13.0781 257.57 12.8125 258.32 12.8125C259.07 12.8125 259.656 13.0156 260.078 13.4219C260.5 13.8281 260.695 14.3672 260.664 15.0391C260.664 15.3828 260.57 15.6484 260.383 15.8359C260.117 15.6641 259.766 15.5781 259.328 15.5781C258.438 15.5781 257.68 16.1875 257.055 17.4062L254.453 22.3047C254.047 23.1172 253.836 23.6328 253.82 23.8516C253.805 24.0703 253.82 24.2578 253.867 24.4141C253.93 24.5703 254.016 24.7344 254.125 24.9062C254.391 25.3438 254.719 25.7031 255.109 25.9844C253.078 26.4375 251.516 27.6484 250.422 29.6172L246.18 36.7422C246.82 37.1641 247.789 37.375 249.086 37.375C250.398 37.375 251.406 37.2188 252.109 36.9062C252.812 36.5781 253.414 36.1406 253.914 35.5938C254.961 34.4219 255.484 32.9766 255.484 31.2578C255.484 30.5234 255.359 29.9531 255.109 29.5469C255.609 29.1719 256.023 28.9844 256.352 28.9844C256.68 28.9844 256.977 29.0547 257.242 29.1953C257.523 29.3359 257.773 29.5312 257.992 29.7812C258.492 30.375 258.742 31.0391 258.742 31.7734C258.742 32.4922 258.586 33.0938 258.273 33.5781C259.023 34.0469 259.398 34.5859 259.398 35.1953C259.398 35.8047 259.117 36.3516 258.555 36.8359C259.055 37.3672 259.305 37.8359 259.305 38.2422C259.305 38.6328 259.234 38.9844 259.094 39.2969C258.953 39.5938 258.766 39.8672 258.531 40.1172C258.016 40.6641 257.445 40.9375 256.82 40.9375C256.57 40.9375 256.281 40.875 255.953 40.75C256 40.5625 256.023 40.2969 256.023 39.9531C256.023 39.4219 255.781 39.1562 255.297 39.1562C254.906 39.1562 254.477 39.2656 254.008 39.4844C253.539 39.7031 253.094 39.875 252.672 40C252.25 40.125 251.812 40.2344 251.359 40.3281C250.406 40.5 249.508 40.5859 248.664 40.5859C246.695 40.5859 245.023 40.2812 243.648 39.6719C242.898 40.2031 242.086 40.4688 241.211 40.4688C240.352 40.4688 239.609 40.2031 238.984 39.6719C238.281 40.2031 237.594 40.4688 236.922 40.4688ZM251.875 18.1797C250.875 18.2422 250.008 18.9141 249.273 20.1953L247.445 23.3594C246.961 24.1875 246.609 24.75 246.391 25.0469C246.047 25.4844 245.406 25.7969 244.469 25.9844C245 26.2344 245.25 26.5156 245.219 26.8281C245.203 27.125 245.156 27.3828 245.078 27.6016C245.016 27.8203 244.938 28.0312 244.844 28.2344C244.703 28.5781 244.484 29.0234 244.188 29.5703L243.297 31.1406C242.781 32.0938 242.719 32.9219 243.109 33.625C243.156 33.7188 243.227 33.7734 243.32 33.7891L251.875 18.1797Z" fill="white"/>
</svg>
